# xmcd
# 
# Track frame offsets:
#     150
#     22885
#     41302
#     63020
#     84840
#     108620
#     129530
#     142282
#     166005
#     184777
# 
# Disc length: 2717
# 
# Revision: 3
# Processed by: cddbd v1.5.2PL0 Copyright (c) Steve Scherf et al.
# Submitted via: fre:ac v1.0.31
# 
DISCID=780a9b0a
DTITLE=Columbia Blues - Robert Pete Williams Free Again
DYEAR=1960
DGENRE=Blues
TTITLE0=Freed Again
TTITLE1=Almost Dead Blues
TTITLE2=Rolling Stone
TTITLE3=Two Wings
TTITLE4=A Thousand Miles From Nowhere
TTITLE5=Thumbing A Ride
TTITLE6=I've Grown So Ugly
TTITLE7=Death Blues
TTITLE8=Hobo Worried Blues
TTITLE9=Hay Cutting Song
EXTD=Bluesville \nOBCCD 553 2\n
EXTT0=
EXTT1=
EXTT2=
EXTT3=
EXTT4=
EXTT5=
EXTT6=
EXTT7=
EXTT8=
EXTT9=
PLAYORDER=
